<svg height="435.646pt" viewBox="0 0 435.646 435.646" width="435.646pt" xmlns="http://www.w3.org/2000/svg"><path d="m113.824219 317.824219v-200c0-13.257813 10.742187-24 24-24h-20c-13.257813 0-24 10.742187-24 24v200c0 13.253906 10.742187 24 24 24h20c-13.257813 0-24-10.746094-24-24zm0 0" fill="#d4e1f4"/><g fill="#0635c9"><path d="m323.824219 137.824219c0-14.359375-11.640625-26-26-26h-160c-14.359375 0-26 11.640625-26 26v160c0 14.359375 11.640625 26 26 26h160c14.359375 0 26-11.640625 26-26zm-12 160c0 7.730469-6.269531 14-14 14h-160c-7.734375 0-14-6.269531-14-14v-160c0-7.734375 6.265625-14 14-14h160c7.730469 0 14 6.265625 14 14zm0 0"/><path d="m353.824219 117.824219c0-19.882813-16.117188-36-36-36h-200c-19.882813 0-36 16.117187-36 36v200c0 19.882812 16.117187 36 36 36h200c19.882812 0 36-16.117188 36-36zm-12 200c0 13.253906-10.746094 24-24 24h-200c-13.257813 0-24-10.746094-24-24v-200c0-13.257813 10.742187-24 24-24h200c13.253906 0 24 10.742187 24 24zm0 0"/><path d="m239.824219 373.644531c-3.316407 0-6 2.6875-6 6v50c0 3.316407 2.683593 6 6 6 3.3125 0 6-2.683593 6-6v-50c0-3.3125-2.6875-6-6-6zm0 0"/><path d="m195.824219 373.644531c-3.316407 0-6 2.6875-6 6v50c0 3.316407 2.683593 6 6 6 3.3125 0 6-2.683593 6-6v-50c0-3.3125-2.6875-6-6-6zm0 0"/><path d="m152.824219 373.644531c-3.316407 0-6 2.6875-6 6v50c0 3.316407 2.683593 6 6 6 3.3125 0 6-2.683593 6-6v-50c0-3.3125-2.6875-6-6-6zm0 0"/><path d="m282.824219 373.644531c-3.316407 0-6 2.6875-6 6v50c0 3.316407 2.683593 6 6 6 3.3125 0 6-2.683593 6-6v-50c0-3.3125-2.6875-6-6-6zm0 0"/><path d="m201.824219 56v-50c0-3.3125-2.6875-6-6-6-3.316407 0-6 2.6875-6 6v50c0 3.3125 2.683593 6 6 6 3.3125 0 6-2.6875 6-6zm0 0"/><path d="m245.824219 56v-50c0-3.3125-2.6875-6-6-6-3.316407 0-6 2.6875-6 6v50c0 3.3125 2.683593 6 6 6 3.3125 0 6-2.6875 6-6zm0 0"/><path d="m288.824219 56v-50c0-3.3125-2.6875-6-6-6-3.316407 0-6 2.6875-6 6v50c0 3.3125 2.683593 6 6 6 3.3125 0 6-2.6875 6-6zm0 0"/><path d="m158.824219 56v-50c0-3.3125-2.6875-6-6-6-3.316407 0-6 2.6875-6 6v50c0 3.3125 2.683593 6 6 6 3.3125 0 6-2.6875 6-6zm0 0"/><path d="m429.644531 189.824219h-50c-3.3125 0-6 2.683593-6 6 0 3.3125 2.6875 6 6 6h50c3.316407 0 6-2.6875 6-6 0-3.316407-2.683593-6-6-6zm0 0"/><path d="m429.644531 233.824219h-50c-3.3125 0-6 2.683593-6 6 0 3.3125 2.6875 6 6 6h50c3.316407 0 6-2.6875 6-6 0-3.316407-2.683593-6-6-6zm0 0"/><path d="m429.644531 276.824219h-50c-3.3125 0-6 2.683593-6 6 0 3.3125 2.6875 6 6 6h50c3.316407 0 6-2.6875 6-6 0-3.316407-2.683593-6-6-6zm0 0"/><path d="m429.644531 146.824219h-50c-3.3125 0-6 2.683593-6 6 0 3.3125 2.6875 6 6 6h50c3.316407 0 6-2.6875 6-6 0-3.316407-2.683593-6-6-6zm0 0"/><path d="m56 233.824219h-50c-3.3125 0-6 2.683593-6 6 0 3.3125 2.6875 6 6 6h50c3.3125 0 6-2.6875 6-6 0-3.316407-2.6875-6-6-6zm0 0"/><path d="m56 189.824219h-50c-3.3125 0-6 2.683593-6 6 0 3.3125 2.6875 6 6 6h50c3.3125 0 6-2.6875 6-6 0-3.316407-2.6875-6-6-6zm0 0"/><path d="m56 146.824219h-50c-3.3125 0-6 2.683593-6 6 0 3.3125 2.6875 6 6 6h50c3.3125 0 6-2.6875 6-6 0-3.316407-2.6875-6-6-6zm0 0"/><path d="m56 276.824219h-50c-3.3125 0-6 2.683593-6 6 0 3.3125 2.6875 6 6 6h50c3.3125 0 6-2.6875 6-6 0-3.316407-2.6875-6-6-6zm0 0"/></g><path d="m212.214844 175.28125c-.882813-2.640625-4.179688-3.960938-7.480469-3.960938s-6.492187 1.320313-7.371094 3.960938l-21.890625 71.277344c-.089844.324218-.125.660156-.109375.992187 0 2.859375 4.070313 4.839844 7.261719 4.839844 1.980469 0 3.519531-.421875 4.070312-2.183594l4.507813-15.382812h27.171875l4.507812 15.382812c.550782 1.761719 2.089844 2.300781 3.960938 2.300781 3.300781 0 7.371094-2.148437 7.371094-4.902343-.019532-.347657-.09375-.691407-.222656-1.019531zm-18.480469 49.542969 11-37.730469 11 37.730469zm0 0" fill="#1ae5be"/><path d="m248.824219 171.980469c-2.859375 0-6 1.097656-6 3.738281v72.820312c0 2.53125 3.140625 3.851563 6 3.851563 2.96875 0 6-1.320313 6-3.851563v-72.816406c0-2.644531-3.03125-3.742187-6-3.742187zm0 0" fill="#1ae5be"/></svg>