<svg xmlns="http://www.w3.org/2000/svg" width="537" height="450" viewBox="0 0 537 450">
  <g id="Groupe" transform="translate(682 -826)">
    <rect id="Rectangle_7" data-name="Rectangle 7" width="537" height="450" transform="translate(-682 826)" fill="#fff"/>
    <g id="facial-recognition" transform="translate(522.001 547.81)">
      <g id="Group_3" data-name="Group 3" transform="translate(-1015.001 424.19)">
        <g id="Group_2" data-name="Group 2" transform="translate(0 0)">
          <path id="Path_10" data-name="Path 10" d="M2.648,37.073A2.646,2.646,0,0,0,5.3,34.424V7.944A2.65,2.65,0,0,1,7.945,5.3h26.48a2.648,2.648,0,1,0,0-5.3H7.944A7.952,7.952,0,0,0,0,7.944V34.424a2.647,2.647,0,0,0,2.648,2.648Z" transform="translate(0.001 0.001)" fill="#fe0a52"/>
          <path id="Path_11" data-name="Path 11" d="M421.662,0h-26.48a2.648,2.648,0,1,0,0,5.3h26.481a2.649,2.649,0,0,1,2.648,2.648v26.48a2.648,2.648,0,1,0,5.3,0V7.944A7.953,7.953,0,0,0,421.662,0Z" transform="translate(-270.722 0.001)" fill="#fe0a52"/>
          <path id="Path_12" data-name="Path 12" d="M426.959,392.533a2.646,2.646,0,0,0-2.648,2.648v26.481a2.649,2.649,0,0,1-2.648,2.648h-26.48a2.648,2.648,0,1,0,0,5.3h26.48a7.952,7.952,0,0,0,7.944-7.944V395.181a2.646,2.646,0,0,0-2.648-2.648Z" transform="translate(-270.723 -270.721)" fill="#fe0a52"/>
          <path id="Path_13" data-name="Path 13" d="M34.424,424.311H7.944A2.65,2.65,0,0,1,5.3,421.662v-26.48a2.648,2.648,0,0,0-5.3,0v26.481a7.952,7.952,0,0,0,7.944,7.944H34.424a2.648,2.648,0,0,0,0-5.3Z" transform="translate(0.001 -270.722)" fill="#fe0a52"/>
          <path id="Path_14" data-name="Path 14" d="M156.236,67.969H129.418a43.827,43.827,0,0,0-3.133-14.907C120.849,42.023,104.826,25.6,82.962,25.6H75.922C54.058,25.6,38.035,42.021,32.6,53.062a43.819,43.819,0,0,0-3.133,14.909H2.648a2.648,2.648,0,1,0,0,5.3H29.195c-.057,1.94-.073,3.856-.06,5.695a8.94,8.94,0,0,0-1.475-.344,8.178,8.178,0,0,0-6.861,2.4,10.98,10.98,0,0,0-2.009,9.427,63.4,63.4,0,0,0,2.976,10.434l.45,1.3c.316.907.582,1.875.851,2.837a23.144,23.144,0,0,0,3.075,7.484,7.033,7.033,0,0,0,5.135,3.129c.126.008.261.013.4.013.111,0,.242-.025.359-.032.175,2.42.29,4.592.29,6.177,0,9.056,8.521,20.129,13.559,25.244a114.767,114.767,0,0,0,9.167,7.985,109.78,109.78,0,0,1,8.745,7.6A18.389,18.389,0,0,0,75.922,168.6h7.039a18.389,18.389,0,0,0,12.123-5.984,110.693,110.693,0,0,1,8.741-7.6A114.49,114.49,0,0,0,113,147.02c5.035-5.113,13.556-16.186,13.556-25.242,0-1.584.115-3.756.29-6.177.117.007.248.032.359.032.14,0,.274-.005.4-.013a7.043,7.043,0,0,0,5.142-3.139,23.141,23.141,0,0,0,3.067-7.473c.269-.964.535-1.927.851-2.837l.45-1.3a63.261,63.261,0,0,0,2.974-10.427,10.975,10.975,0,0,0-2.015-9.436,8.161,8.161,0,0,0-6.853-2.395,8.947,8.947,0,0,0-1.473.344c.013-1.838,0-3.755-.06-5.7h26.546a2.648,2.648,0,0,0,0-5.3Zm-125.8,41.425a19.041,19.041,0,0,1-2.268-5.807c-.3-1.071-.6-2.136-.947-3.145l-.458-1.311a58.505,58.505,0,0,1-2.754-9.574,6.334,6.334,0,0,1,.53-4.789,3.01,3.01,0,0,1,2.524-.887,4.036,4.036,0,0,1,2.207,1.061c.181,4.751.478,8.159.517,8.585.015.133,1.065,8.7,1.81,16.8a2.1,2.1,0,0,1-1.16-.934Zm4.179-26.287c-.033-.052-.078-.09-.111-.141-.085-3.056-.1-6.385,0-9.7h5.219v8.617l-5.087,1.27c-.012-.013-.012-.027-.021-.044Zm7.752,51a25.448,25.448,0,0,1-4.745-12.334c0-2.461-.242-6.128-.578-10.027a2.581,2.581,0,0,0-.042-.469c-.557-6.363-1.34-13.2-1.723-16.429l7.089,8.5Zm-5.8-45.985,5.961-1.488,18.735,2.339,1.8,10.767H46.256Zm8.447-6.513V73.265h8.952l5.021,10.09Zm14.867-8.347h13.19l-8.793,8.842ZM47.665,108.228,62.61,121.3l-5.676,7.568H47.665Zm3.626,36.64c-.566-.524-1.123-1.047-1.633-1.564-.631-.641-1.3-1.368-2-2.158v-6.975h9.273l5.028,6.7ZM67.575,158.89a114.62,114.62,0,0,0-9.183-7.994c-.847-.688-1.7-1.382-2.541-2.078L65,145.393l9.86,17.747a14.44,14.44,0,0,1-7.282-4.248Zm9.219-3.163L70.7,144.763h6.092Zm0-16.263H67.525l-5.957-7.944,5.957-7.944h9.269Zm0-21.184H67.2L52.065,105.042H65.517l11.277,4.506v8.734Zm0-14.437-8.226-3.287L66.39,87.494l10.4-10.465ZM34.781,67.969A37.887,37.887,0,0,1,37.353,55.4c4.665-9.473,19.26-24.5,38.57-24.5h7.039c19.31,0,33.905,15.03,38.57,24.5a37.926,37.926,0,0,1,2.571,12.57Zm79.085,5.3v8.347L99.9,83.358l5.021-10.09ZM82.09,118.282v-8.734l11.278-4.506h13.451l-15.132,13.24Zm15.226,13.24-5.957,7.944H82.09V123.578h9.269ZM82.09,103.845V77.035L92.494,87.5,90.316,100.56Zm3.72-30.579H99l-4.4,8.842Zm-3.72,82.464V144.763h6.092Zm18.4-4.83h0a115.014,115.014,0,0,0-9.178,7.993,14.448,14.448,0,0,1-7.281,4.251l9.86-17.75,9.145,3.424C102.187,149.516,101.335,150.211,100.487,150.9Zm10.732-9.751c-.69.786-1.361,1.515-1.991,2.155-.51.518-1.068,1.042-1.633,1.567l-10.672-4,5.028-6.7h9.269Zm0-12.274h-9.27l-5.676-7.568,14.945-13.079v20.644Zm1.409-29.129H95.821l1.8-10.767,18.735-2.339,5.961,1.488Zm9.255,11.536a2.571,2.571,0,0,0-.042.47c-.336,3.9-.578,7.567-.578,10.027a25.448,25.448,0,0,1-4.745,12.332V103.355l7.089-8.5c-.391,3.281-1.171,10.094-1.726,16.429Zm2.5-28.317c-.034.052-.08.091-.113.143-.009.015-.008.031-.018.045l-5.087-1.27V73.265h5.218c.1,3.319.082,6.648,0,9.7Zm7.44.913h0a3.012,3.012,0,0,1,2.516.882,6.312,6.312,0,0,1,.535,4.8,58.378,58.378,0,0,1-2.752,9.566l-.458,1.311c-.349,1.011-.647,2.077-.947,3.145a19.066,19.066,0,0,1-2.26,5.8,2.117,2.117,0,0,1-1.169.942c.746-8.105,1.8-16.7,1.82-16.89.035-.4.328-3.775.508-8.5a4.041,4.041,0,0,1,2.2-1.057Z" transform="translate(0.001 -17.655)" fill="#fe0a52"/>
        </g>
      </g>
    </g>
  </g>
</svg>
